<?xml version="1.0" standalone="no"?>
<!DOCTYPE svg PUBLIC "-//W3C//DTD SVG 20010904//EN"
 "http://www.w3.org/TR/2001/REC-SVG-20010904/DTD/svg10.dtd">
<svg version="1.0" xmlns="http://www.w3.org/2000/svg"
 width="500.000000pt" height="500.000000pt" viewBox="0 0 500.000000 500.000000"
 preserveAspectRatio="xMidYMid meet">

<g transform="translate(0.000000,500.000000) scale(0.100000,-0.100000)"
fill="#000000" stroke="none">
<path d="M1834 3951 c-96 -23 -220 -125 -269 -220 -54 -108 -55 -119 -55 -733
0 -598 2 -630 47 -726 54 -116 137 -186 257 -218 67 -18 1154 -21 1205 -3 l32
11 -99 102 c-54 55 -112 119 -128 141 -16 22 -34 45 -40 50 -6 6 -31 29 -56
53 l-45 43 -94 -32 c-83 -28 -107 -32 -204 -32 -131 0 -202 16 -330 78 -205
99 -351 278 -407 499 -27 105 -21 328 10 421 72 212 213 365 417 452 99 42
136 48 290 48 130 0 159 -3 220 -23 241 -80 416 -255 497 -498 20 -61 23 -87
22 -224 -1 -162 -10 -215 -54 -313 -12 -27 -18 -56 -15 -67 8 -26 135 -153
267 -268 l107 -93 10 38 c17 60 14 1134 -3 1198 -42 159 -152 268 -311 310
-50 13 -149 15 -650 14 -324 -1 -604 -4 -621 -8z"/>
<path d="M2285 3813 c-124 -18 -258 -79 -352 -159 -54 -46 -121 -141 -166
-234 -74 -156 -74 -395 2 -555 113 -239 353 -395 610 -395 176 0 328 66 450
196 115 122 170 239 190 401 41 335 -181 656 -504 728 -69 15 -186 25 -230 18z
m10 -98 c0 -26 -4 -30 -50 -43 -27 -8 -59 -19 -70 -25 -11 -6 -44 -23 -74 -39
-30 -16 -72 -44 -93 -63 -21 -19 -42 -35 -47 -35 -5 0 -16 -3 -25 -6 -30 -11
-18 40 19 83 47 55 120 100 218 134 101 36 122 35 122 -6z m185 -120 c41 -21
70 -63 70 -100 l0 -33 98 -4 c112 -4 153 -22 183 -78 17 -31 19 -60 19 -280 0
-217 -3 -250 -19 -285 -21 -46 -54 -79 -94 -94 -31 -12 -661 -16 -716 -5 -41
8 -96 60 -116 108 -13 31 -16 73 -15 210 1 94 -1 198 -5 231 -8 74 10 122 60
161 32 24 47 28 135 32 l100 5 0 30 c0 38 37 94 70 106 42 16 197 13 230 -4z"/>
<path d="M2277 3512 c-10 -10 -17 -26 -17 -35 0 -15 14 -17 105 -17 97 0 105
1 105 19 0 38 -27 51 -104 51 -58 0 -76 -4 -89 -18z"/>
<path d="M2015 3368 c-34 -18 -45 -40 -45 -86 0 -118 121 -215 244 -195 20 3
36 11 36 19 0 7 10 25 23 40 19 22 34 28 79 32 71 6 112 -14 130 -64 l13 -36
65 7 c36 4 80 14 98 22 96 45 147 189 87 248 l-24 25 -343 0 c-229 -1 -350 -4
-363 -12z"/>
<path d="M2332 3044 c3 -64 23 -88 56 -68 13 8 17 25 17 65 l0 54 -38 3 -38 3
3 -57z"/>
<path d="M1970 2985 c0 -60 5 -108 14 -130 26 -62 36 -63 394 -64 l321 0 29
24 c28 23 30 30 36 124 4 55 5 109 1 121 -6 19 -8 19 -53 -12 -42 -29 -56 -33
-136 -38 -88 -5 -90 -5 -97 -33 -10 -38 -28 -57 -67 -74 -64 -27 -146 12 -158
76 l-6 29 -87 4 c-78 3 -90 6 -133 36 -26 17 -49 32 -52 32 -3 0 -6 -43 -6
-95z"/>
<path d="M2912 2624 c-29 -35 -71 -74 -93 -87 -21 -12 -39 -24 -39 -27 0 -3
18 -26 40 -50 l39 -44 42 47 c22 26 68 68 101 93 l60 46 -43 44 c-24 24 -46
44 -49 43 -3 0 -29 -29 -58 -65z"/>
<path d="M3078 2513 c-56 -47 -168 -159 -168 -169 0 -5 69 -79 153 -165 163
-167 179 -177 257 -164 57 10 102 43 128 97 38 75 24 104 -105 225 -204 190
-218 203 -225 203 -3 0 -21 -12 -40 -27z"/>
<path d="M1335 1789 c-12 -18 4 -57 26 -64 38 -12 65 35 37 63 -15 15 -55 16
-63 1z"/>
<path d="M1890 1740 c0 -59 -1 -61 -22 -53 -50 17 -90 8 -125 -30 -29 -32 -33
-44 -33 -89 0 -107 92 -174 164 -117 21 17 26 18 26 5 0 -12 10 -16 36 -16
l35 0 -7 173 c-4 94 -7 173 -8 173 0 1 -16 5 -33 9 l-33 7 0 -62z m-19 -120
c28 -15 27 -93 -2 -113 -55 -39 -115 42 -73 101 16 24 44 28 75 12z"/>
<path d="M3709 1770 c-1 -46 2 -325 4 -326 1 -1 14 -4 30 -8 22 -5 29 -2 35
15 7 19 9 19 21 5 21 -26 103 -21 128 7 32 35 43 62 43 110 0 35 -6 51 -34 83
-29 34 -38 38 -77 38 -24 0 -51 -3 -60 -7 -13 -7 -15 0 -11 51 l4 59 -41 -1
c-37 -1 -41 -3 -42 -26z m163 -157 c37 -33 11 -113 -37 -113 -43 0 -69 64 -45
111 13 24 57 25 82 2z"/>
<path d="M1060 1610 l0 -180 40 0 40 0 0 71 0 71 75 -4 75 -3 0 33 0 32 -75 0
-75 0 0 40 0 40 80 0 80 0 0 40 0 40 -120 0 -120 0 0 -180z"/>
<path d="M2068 1785 c-4 -4 2 -21 11 -38 10 -18 37 -64 60 -104 35 -60 43 -84
48 -142 l6 -71 38 0 39 0 0 71 c0 62 4 78 30 121 17 26 30 50 30 53 0 2 14 26
30 52 17 26 30 51 30 55 0 13 -77 9 -88 -4 -5 -7 -24 -41 -42 -76 -18 -35 -35
-60 -39 -57 -3 4 -22 37 -41 73 -32 62 -38 67 -70 70 -20 2 -39 0 -42 -3z"/>
<path d="M3300 1666 c0 -68 -3 -131 -6 -140 -7 -19 -55 -21 -73 -3 -10 10 -16
7 -31 -13 -27 -35 -25 -45 14 -64 46 -22 88 -20 120 5 48 38 56 67 56 209 l0
130 -40 0 -40 0 0 -124z"/>
<path d="M1325 1682 c3 -7 5 -67 5 -133 l0 -119 35 0 35 0 0 133 0 132 -40 0
c-31 1 -39 -2 -35 -13z"/>
<path d="M1440 1565 l0 -135 35 0 35 0 0 78 c0 87 16 122 55 122 35 0 45 -27
45 -119 l0 -81 35 0 35 0 0 106 c0 103 -1 106 -29 135 -35 35 -77 38 -115 8
l-26 -20 0 20 c0 17 -6 21 -35 21 l-35 0 0 -135z"/>
<path d="M2930 1568 l0 -128 39 0 38 0 -5 49 c-6 68 12 119 46 128 15 4 33 6
40 5 8 -2 12 11 12 38 0 35 -3 40 -24 40 -13 0 -36 -10 -52 -22 -21 -17 -26
-18 -22 -6 5 13 -1 17 -33 20 l-39 4 0 -128z"/>
<path d="M3487 1685 c-54 -28 -77 -65 -77 -122 0 -92 96 -157 184 -123 81 30
114 133 65 201 -37 53 -117 73 -172 44z m95 -72 c37 -34 12 -113 -36 -113 -29
0 -43 11 -55 43 -25 65 40 116 91 70z"/>
<path d="M2389 1651 c-34 -33 -39 -45 -39 -83 0 -51 30 -104 70 -126 15 -7 45
-11 73 -9 120 10 167 160 73 232 -26 19 -45 25 -86 25 -48 0 -56 -4 -91 -39z
m131 -41 c39 -39 11 -120 -41 -120 -23 0 -59 47 -59 76 0 29 33 64 60 64 11 0
29 -9 40 -20z"/>
<path d="M2645 1585 c0 -92 2 -107 21 -125 32 -32 89 -37 125 -11 23 17 29 19
29 6 0 -11 10 -15 35 -15 l35 0 0 125 0 125 -40 0 -40 0 0 -85 c0 -78 -2 -86
-24 -100 -20 -14 -28 -14 -45 -3 -19 11 -21 22 -21 100 l0 88 -37 0 -38 0 0
-105z"/>
</g>
</svg>
